HIERARCHY
ROOT Hips
{
    OFFSET 0.000000 0.000000 0.000000
    CHANNELS 6 Xposition Yposition Zposition Zrotation Xrotation Yrotation
    JOINT Chest
    {
        OFFSET -0.000000 0.071129 0.000000
        CHANNELS 3 Zrotation Xrotation Yrotation
        JOINT Chest2
        {
            OFFSET -0.000000 0.196697 0.000000
            CHANNELS 3 Zrotation Xrotation Yrotation
            JOINT Neck
            {
                OFFSET -0.000000 0.214046 0.000000
                CHANNELS 3 Zrotation Xrotation Yrotation
                JOINT Head
                {
                    OFFSET -0.000000 0.094115 0.017348
                    CHANNELS 3 Zrotation Xrotation Yrotation
                    End Site
                    {
                        OFFSET -0.000000 0.173484 0.000000
                    }
                }
            }
            JOINT LeftCollar
            {
                OFFSET 0.034321 0.181435 -0.001150
                CHANNELS 3 Zrotation Xrotation Yrotation
                JOINT LeftShoulder
                {
                    OFFSET 0.098451 0.000000 0.000000
                    CHANNELS 3 Zrotation Xrotation Yrotation
                    JOINT LeftElbow
                    {
                        OFFSET 0.267076 0.000000 0.000000
                        CHANNELS 3 Zrotation Xrotation Yrotation
                        JOINT LeftWrist
                        {
                            OFFSET 0.220717 0.000000 0.000000
                            CHANNELS 3 Zrotation Xrotation Yrotation
                            End Site
                            {
                                OFFSET 0.000000 -0.130113 0.000000
                            }
                        }
                    }
                }
            }
            JOINT RightCollar
            {
                OFFSET -0.035036 0.181435 -0.001150
                CHANNELS 3 Zrotation Xrotation Yrotation
                JOINT RightShoulder
                {
                    OFFSET -0.098451 0.000000 0.000000
                    CHANNELS 3 Zrotation Xrotation Yrotation
                    JOINT RightElbow
                    {
                        OFFSET -0.267076 0.000000 0.000000
                        CHANNELS 3 Zrotation Xrotation Yrotation
                        JOINT RightWrist
                        {
                            OFFSET -0.220717 0.000000 0.000000
                            CHANNELS 3 Zrotation Xrotation Yrotation
                            End Site
                            {
                                OFFSET -0.000000 -0.130113 0.000000
                            }
                        }
                    }
                }
            }
        }
    }
    JOINT LeftHip
    {
        OFFSET 0.086742 0.000000 0.000000
        CHANNELS 3 Zrotation Xrotation Yrotation
        JOINT LeftKnee
        {
            OFFSET -0.000000 -0.402679 0.000000
            CHANNELS 3 Zrotation Xrotation Yrotation
            JOINT LeftAnkle
            {
                OFFSET -0.000000 -0.332160 0.000000
                CHANNELS 3 Zrotation Xrotation Yrotation
                JOINT LeftToe
                {
                    OFFSET -0.000000 -0.056382 0.130113
                    CHANNELS 3 Zrotation Xrotation Yrotation
                    End Site
                    {
                        OFFSET -0.000000 0.000000 0.034697
                    }
                }
            }
        }
    }
    JOINT RightHip
    {
        OFFSET -0.086742 0.000000 0.000000
        CHANNELS 3 Zrotation Xrotation Yrotation
        JOINT RightKnee
        {
            OFFSET -0.000000 -0.402679 0.000000
            CHANNELS 3 Zrotation Xrotation Yrotation
            JOINT RightAnkle
            {
                OFFSET -0.000000 -0.332160 0.000000
                CHANNELS 3 Zrotation Xrotation Yrotation
                JOINT RightToe
                {
                    OFFSET -0.000000 -0.056382 0.130113
                    CHANNELS 3 Zrotation Xrotation Yrotation
                    End Site
                    {
                        OFFSET -0.000000 0.000000 0.034697
                    }
                }
            }
        }
    }
}
MOTION
Frames:    8
Frame Time:    0.016667
0.015517    0.812489    -0.136342    0.214015    -0.259823    172.566025    1.329001    -4.298677    0.369704    -0.520471    0.378993    0.108468    -4.605620    15.830011    0.820521    -0.281258    -0.571702    -0.371270    12.651387    -0.086375    1.182886    -23.030621    -2.940065    12.512882    -0.052039    2.127903    -0.068631    91.855896    -0.057718    -2.126954    -15.913567    -0.286174    3.056366    19.256569    0.609277    3.239638    0.215159    1.220319    -0.107367    -90.579521    -0.273222    1.219190    2.939119    -0.938414    -0.283491    -4.795511    14.245908    3.804912    1.008447    -13.482227    6.703917    0.000000    0.000000    0.000000    3.250333    -3.587545    1.723475    0.151118    12.988999    0.985887    -3.258697    -9.130401    -2.537498    0.000000    0.000000    0.000000    
0.015656    0.812438    -0.135982    0.224920    -0.261173    172.537735    1.308322    -4.265831    0.367403    -0.513571    0.409533    0.108373    -4.564477    15.787971    0.829291    -0.346161    -0.604877    -0.341374    12.666817    -0.110800    1.181421    -23.038746    -2.917402    12.527583    -0.046002    2.118477    -0.089381    91.845329    -0.052129    -2.117622    -15.858585    -0.294125    3.038799    19.224133    0.579518    3.259709    0.207677    1.210823    -0.109655    -90.500511    -0.273693    1.209857    2.963592    -0.927455    -0.281812    -4.800464    14.190516    3.808584    1.037819    -13.502703    6.699386    0.000000    0.000000    0.000000    3.316888    -3.611255    1.682734    0.051541    12.967574    0.956836    -3.173511    -9.091165    -2.422521    0.000000    0.000000    0.000000    
0.015778    0.812450    -0.135633    0.245799    -0.249478    172.519669    1.291108    -4.205461    0.353155    -0.479191    0.417415    0.104077    -4.571977    15.737749    0.859367    -0.400968    -0.625362    -0.303602    12.663644    -0.107519    1.174392    -23.059147    -2.848594    12.540438    -0.053391    2.097045    -0.097690    91.815254    -0.043162    -2.096343    -15.869104    -0.297382    3.035413    19.282537    0.618417    3.267800    0.117369    1.194429    -0.113804    -90.463799    -0.334026    1.193193    3.010801    -0.901371    -0.334557    -4.845253    14.035553    4.734329    0.865319    -13.392810    5.747341    0.000000    0.000000    0.000000    3.344541    -3.611302    1.770004    0.058711    12.958163    0.997307    -3.213599    -9.079802    -2.495237    0.000000    0.000000    0.000000    
0.016018    0.812433    -0.135180    0.258113    -0.259323    172.536469    1.205470    -4.161134    0.307540    -0.370132    0.435099    0.089304    -4.608376    15.660948    0.923141    -0.425631    -0.672118    -0.241477    12.657613    -0.133148    1.154912    -23.144516    -2.569686    12.621369    -0.024513    1.945485    -0.203025    91.672928    0.035748    -1.945955    -15.905945    -0.330353    3.048863    19.330111    0.565130    3.233012    0.105204    1.216365    -0.107311    -90.624664    -0.280734    1.214913    3.055283    -0.931799    -0.361318    -4.866631    14.048040    4.581161    0.936552    -13.437178    5.886780    0.000000    0.000000    0.000000    3.382302    -3.625022    1.854753    0.076990    12.929624    1.192321    -3.322537    -9.068971    -2.813682    0.000000    0.000000    0.000000    
0.016117    0.812439    -0.134780    0.250753    -0.284067    172.544174    1.143529    -4.132167    0.288337    -0.312483    0.440132    0.083883    -4.628520    15.582077    0.976981    -0.416351    -0.718026    -0.189474    12.636292    -0.119331    1.148071    -23.116337    -2.587415    12.592282    -0.072562    1.974437    -0.149658    91.586433    -0.019176    -1.974095    -15.927129    -0.306016    3.030063    19.386015    0.523606    3.223713    0.066217    1.190013    -0.101782    -90.668800    -0.234470    1.188776    3.056913    -0.997842    -0.425193    -4.865814    14.083941    4.535897    0.919034    -13.449557    5.981079    0.000000    0.000000    0.000000    3.391912    -3.654823    1.901024    0.095085    12.895928    1.345522    -3.399502    -9.051341    -3.061009    0.000000    0.000000    0.000000    
0.016263    0.812443    -0.134419    0.246878    -0.306858    172.549118    1.106262    -4.097693    0.265240    -0.300416    0.427836    0.076591    -4.606297    15.502299    1.028133    -0.456907    -0.756271    -0.122803    12.644554    -0.087420    1.138043    -23.023024    -2.919717    12.542390    -0.088965    2.152644    -0.052261    91.466812    -0.058239    -2.151882    -15.929668    -0.275024    3.008126    19.451105    0.523387    3.244624    0.045348    1.169067    -0.142014    -90.346497    -0.249674    1.168389    3.068091    -1.066721    -0.519127    -4.879644    14.127046    4.619276    0.845493    -13.475460    5.922191    0.000000    0.000000    0.000000    3.413882    -3.666260    1.946382    0.094427    12.824773    1.399770    -3.454657    -9.020838    -3.175982    0.000000    0.000000    0.000000    
0.016433    0.812477    -0.133942    0.247940    -0.355121    172.550461    1.055780    -4.087032    0.261047    -0.260487    0.425590    0.075450    -4.578610    15.479428    1.047733    -0.507579    -0.899533    -0.088630    12.633664    -0.078934    1.106604    -23.020998    -2.832158    12.554227    -0.074935    2.126566    -0.078953    91.523636    -0.059912    -2.125744    -15.923491    -0.262135    3.026038    19.472307    0.444175    3.173734    0.100332    1.220310    -0.146740    -90.361565    -0.320410    1.219411    3.093215    -1.177258    -0.549999    -4.892627    14.197066    4.565461    0.863030    -13.468711    6.006864    0.000000    0.000000    0.000000    3.450454    -3.727400    1.954511    0.087778    12.796074    1.569681    -3.545436    -8.977224    -3.387619    0.000000    0.000000    0.000000    
0.016619    0.812503    -0.133452    0.245770    -0.390850    172.549957    1.013574    -4.068325    0.257727    -0.261589    0.437530    0.074988    -4.506466    15.409327    1.036751    -0.588875    -0.980166    -0.068295    12.674536    -0.109678    1.098974    -23.023493    -2.816538    12.529224    -0.049335    2.103000    -0.074401    91.523170    -0.075388    -2.101964    -15.868144    -0.276286    3.029225    19.485800    0.407994    3.113797    0.110733    1.298829    -0.120838    -90.304794    -0.217476    1.298403    3.111011    -1.262507    -0.564804    -4.887060    14.238486    4.551676    0.869366    -13.462708    6.030920    0.000000    0.000000    0.000000    3.477859    -3.784272    2.000297    0.100823    12.765426    1.544627    -3.598121    -8.937067    -3.427960    0.000000    0.000000    0.000000    
